<?xml version="1.0" encoding="utf-8"?>
<!-- Generator: Adobe Illustrator 16.0.0, SVG Export Plug-In . SVG Version: 6.00 Build 0)  -->
<!DOCTYPE svg PUBLIC "-//W3C//DTD SVG 1.1//EN" "http://www.w3.org/Graphics/SVG/1.1/DTD/svg11.dtd">
<svg version="1.1" id="Layer_1" xmlns="http://www.w3.org/2000/svg" xmlns:xlink="http://www.w3.org/1999/xlink" x="0px" y="0px"
	 width="80px" height="52px" viewBox="0 0 80 52" enable-background="new 0 0 80 52" xml:space="preserve">
<path fill="#C39E28" d="M69.613,43.088c5.73,0,10.389-4.65,10.389-10.365c0-4.363-2.742-8.147-6.637-9.655
	c0.244-0.888,0.371-1.809,0.371-2.74c0-5.717-4.662-10.364-10.393-10.364c-4.816,0-8.867,3.29-10.037,7.733
	c-0.285-0.113-0.574-0.223-0.867-0.318c0.457-1.347,0.691-2.761,0.691-4.197C53.131,5.913,47.203,0,39.917,0
	c-7.288,0-13.215,5.913-13.215,13.181c0,1.497,0.254,2.971,0.746,4.365c-0.378,0.139-0.729,0.329-1.09,0.498
	c-1.045-4.619-5.187-8.082-10.131-8.082c-5.729,0-10.391,4.647-10.391,10.364c0,0.982,0.141,1.955,0.414,2.888
	c-3.713,1.602-6.253,5.286-6.253,9.509c0,5.715,4.661,10.363,10.39,10.363c1.3,0,2.561-0.27,3.75-0.734V47.4H5.473
	c-1.275,0-2.308,1.031-2.308,2.299C3.166,50.971,4.2,52,5.473,52h19.931h2.009h25.179h2.414h19.525c1.273,0,2.307-1.031,2.307-2.301
	S75.803,47.4,74.531,47.4h-8.664v-5.049C67.053,42.816,68.312,43.088,69.613,43.088z M25.403,47.4H18.75l-0.002-5.049
	c1.187,0.465,2.45,0.736,3.748,0.736c1.596,0,3.104-0.373,4.455-1.016c1.568,0.652,3.283,1.016,5.082,1.016
	c2.057,0,4.057-0.492,5.863-1.389V47.4H27.411H25.403L25.403,47.4z M55.004,47.4H52.59H42.51v-5.701
	c1.807,0.896,3.809,1.389,5.861,1.389c1.715,0,3.348-0.338,4.852-0.932c1.307,0.594,2.754,0.932,4.279,0.932
	c1.301,0,2.562-0.271,3.748-0.736l0.002,5.049H55.004L55.004,47.4z"/>
</svg>
