<?xml version="1.0" encoding="utf-8"?>
<!-- Generator: Adobe Illustrator 16.0.0, SVG Export Plug-In . SVG Version: 6.00 Build 0)  -->
<!DOCTYPE svg PUBLIC "-//W3C//DTD SVG 1.1//EN" "http://www.w3.org/Graphics/SVG/1.1/DTD/svg11.dtd">
<svg version="1.1" id="Layer_1" xmlns="http://www.w3.org/2000/svg" xmlns:xlink="http://www.w3.org/1999/xlink" x="0px" y="0px"
	 width="75px" height="75px" viewBox="0 0 75 75" enable-background="new 0 0 75 75" xml:space="preserve">
<g>
	<g>
		<path fill="#C39E28" d="M38.034,28.184c-4.588,0-8.362,3.626-8.751,8.022h17.495C46.391,31.811,42.62,28.184,38.034,28.184z"/>
		<rect x="25.865" fill="#C39E28" width="25.599" height="4.654"/>
		<path fill="#C39E28" d="M38.034,48.338c-5.599,0-10.241-4.371-11.009-9.545H7.757v32.9c0,1.827,1.48,3.307,3.307,3.307h12.47
			v-5.892c0-0.648,0.442-1.094,1.09-1.094h28.098c0.641,0,1.072,0.441,1.072,1.094V75H64.39c1.575,0,2.854-1.279,2.854-2.859V38.793
			H49.046C48.27,43.967,43.627,48.338,38.034,48.338z"/>
		<path fill="#C39E28" d="M53.793,0v5.893c0,0.647-0.436,1.089-1.077,1.089H24.623c-0.647,0-1.09-0.442-1.09-1.089V0H11.103
			C9.256,0,7.759,1.497,7.759,3.344v32.862h19.177c0.393-5.689,5.217-10.364,11.099-10.364c5.879,0,10.698,4.674,11.092,10.364
			h18.117V2.858C67.243,1.279,65.965,0,64.385,0H53.793z"/>
		<path fill="#C39E28" d="M38.034,45.995c4.303,0,7.888-3.323,8.635-7.202H29.387C30.142,42.672,33.729,45.995,38.034,45.995z"/>
		<rect x="25.865" y="70.347" fill="#C39E28" width="25.599" height="4.653"/>
	</g>
</g>
</svg>
