<?xml version="1.0" encoding="utf-8"?>
<!-- Generator: Adobe Illustrator 16.0.0, SVG Export Plug-In . SVG Version: 6.00 Build 0)  -->
<!DOCTYPE svg PUBLIC "-//W3C//DTD SVG 1.1//EN" "http://www.w3.org/Graphics/SVG/1.1/DTD/svg11.dtd">
<svg version="1.1" id="Layer_1" xmlns="http://www.w3.org/2000/svg" xmlns:xlink="http://www.w3.org/1999/xlink" x="0px" y="0px"
	 width="44px" height="44px" viewBox="0 0 44 44" enable-background="new 0 0 44 44" xml:space="preserve">
<path fill="#FFFFFF" d="M2.15,44C0.965,44,0,43.031,0,41.839V5.298C0,2.377,2.346,0,5.23,0H38.77C41.653,0,44,2.377,44,5.298v23.095
	c0,2.922-2.347,5.299-5.232,5.299H12.581c-0.142,0-0.28,0.06-0.381,0.164l-8.486,9.457C3.266,43.771,2.726,44,2.15,44z M5.23,2.75
	c-1.367,0-2.48,1.143-2.48,2.548v34.974l7.445-8.299c0.659-0.671,1.513-1.03,2.386-1.03h26.187c1.368,0,2.482-1.145,2.482-2.55
	V5.298c0-1.405-1.114-2.548-2.482-2.548H5.23z"/>
</svg>
