<?xml version="1.0" encoding="utf-8"?>
<!-- Generator: Adobe Illustrator 16.0.0, SVG Export Plug-In . SVG Version: 6.00 Build 0)  -->
<!DOCTYPE svg PUBLIC "-//W3C//DTD SVG 1.1//EN" "http://www.w3.org/Graphics/SVG/1.1/DTD/svg11.dtd">
<svg version="1.1" id="Layer_1" xmlns="http://www.w3.org/2000/svg" xmlns:xlink="http://www.w3.org/1999/xlink" x="0px" y="0px"
	 width="31px" height="32px" viewBox="0 0 31 32" enable-background="new 0 0 31 32" xml:space="preserve">
<g>
	<g>
		<path fill="#FCFCFC" d="M15.5,0.328C6.966,0.328,0.048,7.345,0.048,16c0,8.656,6.918,15.672,15.451,15.672
			c8.534,0,15.452-7.016,15.452-15.672C30.951,7.345,24.033,0.328,15.5,0.328z M15.5,30.248C7.742,30.248,1.453,23.869,1.453,16
			c0-7.868,6.289-14.248,14.047-14.248c7.758,0,14.047,6.38,14.047,14.248C29.547,23.869,23.258,30.248,15.5,30.248z M13.163,11.188
			v1.814h-1.812V16h1.812v9.047h2.931V16h2.942l0.465-2.998h-3.407v-1.503c0-0.781,0.252-1.528,1.36-1.528h2.211V6.979h-3.141
			C13.883,6.979,13.163,8.743,13.163,11.188z"/>
	</g>
</g>
</svg>
