<?xml version="1.0" encoding="utf-8"?>
<!-- Generator: Adobe Illustrator 16.0.0, SVG Export Plug-In . SVG Version: 6.00 Build 0)  -->
<!DOCTYPE svg PUBLIC "-//W3C//DTD SVG 1.1//EN" "http://www.w3.org/Graphics/SVG/1.1/DTD/svg11.dtd">
<svg version="1.1" id="Layer_1" xmlns="http://www.w3.org/2000/svg" xmlns:xlink="http://www.w3.org/1999/xlink" x="0px" y="0px"
	 width="216px" height="73px" viewBox="0 0 216 73" enable-background="new 0 0 216 73" xml:space="preserve">
<path fill="#FFFFFF" d="M64.87,37H42v-0.942c0,0,2.465,0.168,3.429-0.852C46.106,34.49,46,32.047,46,32.047V13.298
	c0,0-0.185-1.536-0.621-2.204c-0.328-0.502-1.137-0.886-3.379-0.849V9h20.3l0.65,7h-0.875c0,0-1.047-3.497-2.407-4.394
	C58.513,10.844,57.178,11,54.654,11C52.129,11,49,11,49,11v11h5.242c0,0,1.999-0.016,2.359-0.845C56.962,20.325,57.178,20,57.07,18
	H58v9h-0.856c0,0,0.449-4-1.516-4.135c-2.092-0.144-1.299,2.004-1.299,2.004l4.148,10.146c0,0-2.592,0.384-4.577,0.24L49,25.287
	v5.708c0,0,0.491,3.547,1.211,4.396c0.615,0.726,2.819,0.718,5.632,0.718c1.132,0,4.245,0.203,6.076-2.329
	c2.081-2.875,2.509-5.332,2.509-5.332l1.005-0.019L64.87,37z"/>
<path fill="#FFFFFF" d="M59.805,38l3.24,7.489l7.49-18.026c0,0,1.337-2.787,0.146-3.868C69.49,22.513,68,22.797,68,22.797V22h8
	v0.872c0,0-1.29-0.038-2.336,1.225c-1.046,1.263-1.01,2.072-1.912,3.803C70.85,29.63,62.121,51,62.121,51h-1.207l-5.394-13H59.805z"
	/>
<g>
	<path fill="#FFFFFF" d="M79.5,51.445c-0.24,0-0.5-0.194-0.5-0.435V1.694c0-0.241,0.26-0.436,0.5-0.436c0.239,0,0.5,0.195,0.5,0.436
		v49.316C80,51.251,79.739,51.445,79.5,51.445z"/>
</g>
<path fill="#FFFFFF" d="M96.669,69.337c0,0,0.81-1.358,5.912-0.544c3.454,0.552,3.789-1.646,3.558-1.93
	c-0.327-0.402-2.279,0.956-0.866,2.667c1.305,1.581,5.122,0.053,6.046-1.395c0.422-0.661,0.428-1.755-0.416-1.814
	c-0.844-0.062-2.111,1.929-1.025,3.437c1.086,1.509,3.896,1.744,5.348,0.052c1.768-2.063-0.13-4.167-1.953-4.297
	c0.422-0.12,2.58,0.124,2.879,2.375c0.283,2.146-2.173,3.591-3.493,3.54c-0.968-0.037-3.832-0.65-3.405-3.813
	c0.112-0.763,1.125-1.818,1.953-1.476c1.043,0.435,0.939,2.687-1.871,3.982c-2.313,1.064-4.452,0.078-4.764-1.689
	c-0.241-1.367,0.868-2.134,1.629-1.87c0.673,0.234,0.096,2.802-3.438,2.541C99.559,68.867,97.631,68.662,96.669,69.337z"/>
<path fill="#FFFFFF" d="M126.332,66.455c0,0,1.68-3.61,6.199-3.979c4.521-0.37,6.417,2.942,6.683,4.009
	c0.34,1.364,0.143,4.833-4.521,5.914c-4.664,1.081-8.445-3.81-3.953-6.397c1.479-0.769,5.202-1.166,5.202,1.905
	c0,1.904-2.729,2.559-4.235,1.478c-0.199-0.227,2.443,0.938,3.468-0.341c0.906-1.132,0.57-2.588-0.938-3.128
	c-1.507-0.54-4.834,0.144-5.203,2.73s4.003,5.065,7.962,2.444c3.781-2.502,1.421-6.112-0.541-7.335
	c-1.867-1.164-7.961-1.535-10.121,3.355c-0.344-0.541-1.025-4.124-7.623-4.151c-3.723,0.142-7.249,4.236-3.439,7.819
	c1.621,1.393,6.027,1.848,7.479,0.028c1.45-1.819,1.023-4.55-2.701-5.175c-1.791-0.257-4.295,1.648-2.332,3.44
	c0.824,0.597,2.588,0.682,3.07,0.113c0.086-0.085,0.456,0.228-0.824,0.598c-1.279,0.369-3.611-0.369-3.07-2.73
	c0.398-1.563,3.469-2.787,5.885-0.455c2.418,2.332,0.484,5.431-2.729,5.716c-3.214,0.284-6.228-1.309-6.597-4.322
	c-0.37-3.014,2.644-5.487,5.63-5.544C122.066,62.39,124.742,63.727,126.332,66.455z"/>
<path fill="#FFFFFF" d="M156.352,69.337c0,0-0.813-1.358-5.935-0.544c-3.469,0.552-3.804-1.646-3.573-1.93
	c0.328-0.402,2.289,0.956,0.871,2.667c-1.312,1.581-5.144,0.053-6.07-1.395c-0.424-0.661-0.432-1.755,0.416-1.814
	c0.848-0.062,2.119,1.929,1.029,3.437c-1.09,1.509-3.911,1.744-5.369,0.052c-1.774-2.063,0.131-4.167,1.962-4.297
	c-0.425-0.12-2.591,0.124-2.891,2.375c-0.285,2.146,2.182,3.591,3.506,3.54c0.972-0.037,3.849-0.65,3.419-3.813
	c-0.112-0.763-1.128-1.818-1.959-1.476c-1.048,0.435-0.944,2.687,1.877,3.982c2.323,1.064,4.471,0.078,4.783-1.689
	c0.242-1.367-0.871-2.134-1.635-1.87c-0.676,0.234-0.096,2.802,3.452,2.541C153.45,68.867,155.387,68.662,156.352,69.337z"/>
<g>
	<path fill="#FFFFFF" d="M89.193,12.44v5.14h2.859c0.749,0,1.248-0.112,1.495-0.334c0.335-0.294,0.522-0.811,0.563-1.55h0.359v4.532
		h-0.359c-0.088-0.636-0.18-1.042-0.275-1.216c-0.112-0.231-0.299-0.41-0.563-0.537c-0.263-0.128-0.67-0.191-1.22-0.191h-2.859
		v4.293c0,0.581,0.023,0.932,0.071,1.056c0.048,0.123,0.137,0.221,0.269,0.292c0.131,0.071,0.376,0.107,0.735,0.107h2.213
		c0.734,0,1.269-0.05,1.603-0.149c0.335-0.1,0.659-0.301,0.969-0.603c0.398-0.397,0.806-0.998,1.22-1.801h0.383l-1.125,3.268H85.472
		V24.39h0.455c0.312,0,0.606-0.072,0.885-0.215c0.199-0.103,0.337-0.258,0.413-0.465c0.075-0.207,0.113-0.624,0.113-1.252V13.99
		c0-0.819-0.083-1.327-0.251-1.526c-0.231-0.254-0.618-0.382-1.16-0.382h-0.455v-0.357h10.061l0.144,2.862h-0.371
		c-0.135-0.692-0.285-1.165-0.449-1.418c-0.164-0.254-0.404-0.45-0.723-0.584c-0.263-0.096-0.718-0.143-1.364-0.143H89.193z"/>
	<path fill="#FFFFFF" d="M100.293,17.556c1.037-1.24,2.026-1.86,2.967-1.86c0.479,0,0.892,0.12,1.238,0.358
		c0.348,0.239,0.624,0.632,0.832,1.181c0.135,0.39,0.203,0.982,0.203,1.777v3.744c0,0.557,0.048,0.935,0.143,1.134
		c0.072,0.159,0.186,0.285,0.341,0.375c0.155,0.091,0.444,0.137,0.868,0.137v0.346h-4.367v-0.346h0.191
		c0.407,0,0.691-0.062,0.855-0.185c0.163-0.124,0.277-0.308,0.341-0.555c0.032-0.094,0.047-0.397,0.047-0.906v-3.602
		c0-0.794-0.106-1.373-0.316-1.735c-0.211-0.361-0.564-0.542-1.059-0.542c-0.765,0-1.527,0.417-2.285,1.252v4.627
		c0,0.596,0.037,0.966,0.108,1.109c0.096,0.184,0.222,0.318,0.376,0.406c0.156,0.088,0.473,0.131,0.952,0.131v0.346h-4.354v-0.346
		h0.191c0.447,0,0.75-0.113,0.91-0.339c0.159-0.227,0.238-0.662,0.238-1.307V19.5c0-1.058-0.023-1.702-0.072-1.932
		c-0.047-0.231-0.121-0.388-0.221-0.472c-0.1-0.083-0.234-0.125-0.401-0.125c-0.184,0-0.399,0.048-0.646,0.143l-0.143-0.346
		l2.655-1.073h0.407V17.556z"/>
	<path fill="#FFFFFF" d="M115.08,21.408c-0.239,1.161-0.705,2.054-1.399,2.678s-1.46,0.936-2.298,0.936
		c-1.004,0-1.88-0.419-2.625-1.258s-1.118-1.974-1.118-3.405c0-1.384,0.412-2.507,1.238-3.369c0.826-0.863,1.816-1.294,2.973-1.294
		c0.869,0,1.584,0.229,2.142,0.686c0.559,0.458,0.837,0.933,0.837,1.425c0,0.247-0.08,0.444-0.238,0.59
		c-0.16,0.147-0.379,0.221-0.658,0.221c-0.375,0-0.662-0.12-0.861-0.358c-0.104-0.135-0.174-0.391-0.209-0.769
		c-0.037-0.377-0.166-0.666-0.39-0.865c-0.231-0.19-0.542-0.286-0.933-0.286c-0.646,0-1.164,0.235-1.555,0.704
		c-0.52,0.628-0.778,1.459-0.778,2.492c0,1.05,0.258,1.976,0.772,2.779c0.514,0.804,1.214,1.205,2.1,1.205
		c0.629,0,1.191-0.214,1.686-0.644c0.359-0.294,0.701-0.828,1.029-1.599L115.08,21.408z"/>
	<path fill="#FFFFFF" d="M120.654,15.695c1.34,0,2.413,0.505,3.219,1.515c0.686,0.867,1.029,1.861,1.029,2.981
		c0,0.788-0.19,1.583-0.569,2.385c-0.378,0.803-0.898,1.412-1.561,1.825c-0.662,0.414-1.403,0.62-2.225,0.62
		c-1.324,0-2.382-0.528-3.171-1.585c-0.653-0.891-0.98-1.889-0.98-2.994c0-0.811,0.199-1.613,0.598-2.409
		c0.398-0.796,0.925-1.384,1.579-1.765C119.227,15.886,119.921,15.695,120.654,15.695z M120.355,16.315
		c-0.335,0-0.676,0.102-1.021,0.304c-0.348,0.203-0.627,0.557-0.838,1.062c-0.212,0.505-0.318,1.155-0.318,1.95
		c0,1.279,0.256,2.383,0.766,3.309c0.512,0.927,1.186,1.39,2.022,1.39c0.622,0,1.134-0.254,1.538-0.763
		c0.402-0.51,0.604-1.388,0.604-2.636c0-1.567-0.335-2.799-1.005-3.698C121.648,16.622,121.066,16.315,120.355,16.315z"/>
	<path fill="#FFFFFF" d="M128.777,15.695v1.979c0.742-1.319,1.499-1.979,2.273-1.979c0.359,0,0.652,0.108,0.879,0.322
		c0.228,0.215,0.342,0.461,0.342,0.739c0,0.255-0.083,0.467-0.246,0.638c-0.164,0.171-0.36,0.257-0.592,0.257
		c-0.232,0-0.486-0.11-0.766-0.329c-0.279-0.218-0.482-0.328-0.61-0.328c-0.119,0-0.247,0.063-0.382,0.19
		c-0.287,0.263-0.587,0.691-0.898,1.289v4.221c0,0.485,0.064,0.852,0.191,1.097c0.08,0.175,0.225,0.321,0.437,0.436
		s0.517,0.172,0.915,0.172v0.346h-4.51v-0.346c0.447,0,0.777-0.071,0.992-0.215c0.16-0.103,0.271-0.266,0.336-0.489
		c0.031-0.103,0.048-0.413,0.048-0.931v-3.41c0-1.018-0.02-1.626-0.06-1.825c-0.041-0.199-0.115-0.342-0.227-0.43
		c-0.113-0.087-0.252-0.131-0.419-0.131c-0.2,0-0.423,0.048-0.671,0.143l-0.107-0.346l2.668-1.073H128.777z"/>
	<path fill="#FFFFFF" d="M138.994,23.758c-0.431,0.445-0.851,0.767-1.263,0.966c-0.41,0.199-0.852,0.298-1.322,0.298
		c-0.964,0-1.805-0.404-2.522-1.21c-0.719-0.807-1.077-1.838-1.077-3.095c0-1.264,0.396-2.419,1.19-3.465
		c0.793-1.045,1.816-1.568,3.068-1.568c0.781,0,1.424,0.247,1.926,0.739v-1.622c0-1.002-0.023-1.618-0.072-1.849
		c-0.047-0.231-0.122-0.388-0.221-0.471c-0.1-0.084-0.229-0.125-0.389-0.125c-0.169,0-0.387,0.052-0.659,0.155l-0.131-0.346
		l2.632-1.074h0.431v10.173c0,1.026,0.024,1.653,0.071,1.884c0.049,0.23,0.126,0.391,0.234,0.478
		c0.106,0.087,0.232,0.131,0.376,0.131c0.168,0,0.395-0.056,0.683-0.167l0.107,0.346l-2.62,1.085h-0.442V23.758z M138.994,23.09
		v-4.532c-0.031-0.438-0.146-0.835-0.341-1.193s-0.45-0.628-0.766-0.811c-0.315-0.183-0.624-0.274-0.928-0.274
		c-0.566,0-1.072,0.254-1.52,0.763c-0.582,0.66-0.872,1.63-0.872,2.91c0,1.296,0.282,2.288,0.848,2.976
		c0.567,0.688,1.198,1.032,1.892,1.032C137.89,23.96,138.451,23.67,138.994,23.09z"/>
	<path fill="#FFFFFF" d="M147.619,23.483c-0.901,0.691-1.467,1.093-1.699,1.205c-0.352,0.159-0.722,0.238-1.112,0.238
		c-0.605,0-1.107-0.206-1.501-0.62c-0.395-0.414-0.592-0.961-0.592-1.646c0-0.429,0.095-0.799,0.287-1.109
		c0.263-0.437,0.72-0.846,1.37-1.228c0.649-0.381,1.731-0.851,3.247-1.407v-0.347c0-0.874-0.14-1.475-0.418-1.801
		c-0.28-0.326-0.687-0.489-1.221-0.489c-0.399,0-0.718,0.107-0.957,0.322c-0.247,0.223-0.371,0.473-0.371,0.751l0.024,0.561
		c0,0.295-0.076,0.521-0.228,0.68c-0.151,0.159-0.347,0.238-0.586,0.238s-0.436-0.083-0.587-0.251
		c-0.151-0.166-0.227-0.393-0.227-0.679c0-0.549,0.282-1.054,0.849-1.515c0.566-0.46,1.36-0.691,2.381-0.691
		c0.781,0,1.424,0.131,1.927,0.394c0.374,0.198,0.653,0.509,0.837,0.93c0.112,0.278,0.168,0.843,0.168,1.694v2.98
		c0,0.836,0.015,1.348,0.047,1.539c0.031,0.19,0.086,0.318,0.162,0.382c0.076,0.063,0.161,0.095,0.258,0.095
		c0.103,0,0.19-0.023,0.263-0.071c0.135-0.08,0.397-0.31,0.789-0.692v0.537c-0.726,0.953-1.416,1.431-2.069,1.431
		c-0.312,0-0.561-0.107-0.748-0.322C147.725,24.378,147.627,24.008,147.619,23.483z M147.619,22.852V19.5
		c-0.965,0.39-1.592,0.664-1.878,0.823c-0.502,0.279-0.863,0.573-1.083,0.882c-0.22,0.31-0.329,0.644-0.329,1.002
		c0,0.461,0.138,0.845,0.413,1.15c0.275,0.307,0.592,0.46,0.951,0.46C146.18,23.817,146.821,23.495,147.619,22.852z"/>
	<path fill="#FFFFFF" d="M157.608,23.758c-0.431,0.445-0.852,0.767-1.263,0.966c-0.41,0.199-0.852,0.298-1.321,0.298
		c-0.965,0-1.807-0.404-2.525-1.21c-0.718-0.807-1.075-1.838-1.075-3.095c0-1.264,0.396-2.419,1.189-3.465
		c0.793-1.045,1.817-1.568,3.068-1.568c0.781,0,1.424,0.247,1.927,0.739v-1.622c0-1.002-0.023-1.618-0.072-1.849
		c-0.048-0.231-0.121-0.388-0.222-0.471c-0.1-0.084-0.229-0.125-0.389-0.125c-0.167,0-0.387,0.052-0.657,0.155l-0.132-0.346
		l2.632-1.074h0.431v10.173c0,1.026,0.023,1.653,0.072,1.884c0.048,0.23,0.126,0.391,0.232,0.478
		c0.108,0.087,0.233,0.131,0.377,0.131c0.168,0,0.396-0.056,0.683-0.167l0.107,0.346l-2.62,1.085h-0.442V23.758z M157.608,23.09
		v-4.532c-0.032-0.438-0.146-0.835-0.341-1.193c-0.196-0.358-0.451-0.628-0.766-0.811c-0.315-0.183-0.624-0.274-0.927-0.274
		c-0.567,0-1.073,0.254-1.52,0.763c-0.583,0.66-0.873,1.63-0.873,2.91c0,1.296,0.282,2.288,0.849,2.976
		c0.566,0.688,1.196,1.032,1.89,1.032C156.504,23.96,157.065,23.67,157.608,23.09z"/>
	<path fill="#FFFFFF" d="M166.233,23.483c-0.901,0.691-1.467,1.093-1.698,1.205c-0.352,0.159-0.722,0.238-1.113,0.238
		c-0.605,0-1.106-0.206-1.501-0.62s-0.592-0.961-0.592-1.646c0-0.429,0.096-0.799,0.286-1.109c0.264-0.437,0.72-0.846,1.37-1.228
		c0.65-0.381,1.733-0.851,3.248-1.407v-0.347c0-0.874-0.14-1.475-0.418-1.801c-0.279-0.326-0.687-0.489-1.222-0.489
		c-0.398,0-0.717,0.107-0.956,0.322c-0.247,0.223-0.371,0.473-0.371,0.751l0.024,0.561c0,0.295-0.076,0.521-0.228,0.68
		c-0.151,0.159-0.348,0.238-0.587,0.238c-0.238,0-0.434-0.083-0.586-0.251c-0.151-0.166-0.227-0.393-0.227-0.679
		c0-0.549,0.283-1.054,0.85-1.515c0.565-0.46,1.359-0.691,2.38-0.691c0.781,0,1.424,0.131,1.927,0.394
		c0.374,0.198,0.654,0.509,0.837,0.93c0.112,0.278,0.168,0.843,0.168,1.694v2.98c0,0.836,0.016,1.348,0.047,1.539
		c0.032,0.19,0.086,0.318,0.162,0.382c0.075,0.063,0.162,0.095,0.257,0.095c0.104,0,0.191-0.023,0.264-0.071
		c0.135-0.08,0.398-0.31,0.789-0.692v0.537c-0.726,0.953-1.416,1.431-2.069,1.431c-0.312,0-0.561-0.107-0.748-0.322
		C166.34,24.378,166.242,24.008,166.233,23.483z M166.233,22.852V19.5c-0.964,0.39-1.591,0.664-1.879,0.823
		c-0.502,0.279-0.863,0.573-1.081,0.882c-0.22,0.31-0.329,0.644-0.329,1.002c0,0.461,0.137,0.845,0.412,1.15
		c0.275,0.307,0.593,0.46,0.951,0.46C164.794,23.817,165.436,23.495,166.233,22.852z"/>
</g>
<g>
	<path fill="#FFFFFF" d="M90.315,43.372c-0.378,0.437-0.747,0.753-1.106,0.948c-0.361,0.194-0.747,0.292-1.159,0.292
		c-0.847,0-1.584-0.396-2.212-1.188c-0.629-0.792-0.944-1.805-0.944-3.037c0-1.243,0.348-2.376,1.043-3.402
		c0.696-1.027,1.592-1.541,2.689-1.541c0.686,0,1.248,0.242,1.689,0.726v-1.592c0-0.983-0.021-1.588-0.063-1.815
		c-0.042-0.226-0.107-0.38-0.194-0.462c-0.088-0.083-0.202-0.124-0.341-0.124c-0.147,0-0.339,0.051-0.577,0.152l-0.116-0.34
		l2.308-1.054h0.377v9.988c0,1.008,0.021,1.625,0.063,1.851c0.042,0.227,0.11,0.383,0.205,0.469c0.094,0.086,0.204,0.129,0.33,0.129
		c0.146,0,0.346-0.055,0.598-0.164L93,43.547l-2.297,1.065h-0.387V43.372z M90.315,42.716v-4.45
		c-0.029-0.429-0.128-0.819-0.299-1.171c-0.171-0.351-0.395-0.616-0.671-0.796c-0.276-0.179-0.546-0.27-0.813-0.27
		c-0.496,0-0.94,0.25-1.331,0.75c-0.511,0.648-0.767,1.6-0.767,2.857c0,1.272,0.249,2.247,0.745,2.922
		c0.497,0.676,1.048,1.014,1.657,1.014C89.346,43.571,89.839,43.286,90.315,42.716z"/>
	<path fill="#FFFFFF" d="M94.792,38.957c0,1.288,0.279,2.295,0.839,3.021c0.566,0.726,1.227,1.088,1.982,1.088
		c0.51,0,0.952-0.153,1.327-0.462c0.374-0.308,0.687-0.841,0.938-1.598l0.262,0.188c-0.119,0.858-0.461,1.643-1.027,2.353
		c-0.566,0.711-1.279,1.065-2.14,1.065c-0.93,0-1.725-0.404-2.385-1.212s-0.991-1.895-0.991-3.261c0-1.476,0.339-2.627,1.017-3.454
		c0.678-0.828,1.531-1.242,2.559-1.242c0.867,0,1.578,0.318,2.134,0.955c0.556,0.637,0.833,1.489,0.833,2.559H94.792z
		 M94.792,38.418h3.586c-0.028-0.554-0.087-0.944-0.178-1.17c-0.14-0.352-0.351-0.629-0.629-0.832
		c-0.28-0.203-0.57-0.305-0.87-0.305c-0.468,0-0.888,0.204-1.259,0.609C95.071,37.126,94.855,37.692,94.792,38.418z"/>
	<path fill="#FFFFFF" d="M103.832,30.936v11.452c0,0.547,0.035,0.907,0.104,1.083c0.07,0.177,0.179,0.31,0.326,0.399
		c0.146,0.089,0.419,0.134,0.818,0.134v0.34h-3.786v-0.34c0.357,0,0.599-0.041,0.729-0.123c0.129-0.081,0.229-0.217,0.298-0.404
		c0.07-0.186,0.105-0.55,0.105-1.089v-7.833c0-0.976-0.019-1.576-0.057-1.798c-0.039-0.223-0.102-0.375-0.189-0.456
		c-0.087-0.083-0.197-0.124-0.33-0.124c-0.147,0-0.333,0.051-0.556,0.152l-0.147-0.34l2.308-1.054H103.832z"/>
	<path fill="#FFFFFF" d="M122.025,31.556v0.352c-0.398,0.085-0.703,0.23-0.912,0.433c-0.301,0.313-0.566,0.785-0.797,1.417
		l-3.995,10.878h-0.304l-4.289-11.019c-0.225-0.57-0.381-0.917-0.473-1.042c-0.14-0.196-0.313-0.347-0.52-0.457
		c-0.206-0.11-0.483-0.18-0.832-0.211v-0.352h4.676v0.352c-0.525,0.055-0.865,0.154-1.021,0.298
		c-0.158,0.145-0.236,0.33-0.236,0.556c0,0.32,0.129,0.812,0.388,1.476l2.904,7.495l2.706-7.4c0.266-0.726,0.398-1.233,0.398-1.523
		c0-0.18-0.082-0.353-0.246-0.521c-0.164-0.167-0.439-0.282-0.824-0.345c-0.027-0.007-0.076-0.02-0.146-0.035v-0.352H122.025z"/>
	<path fill="#FFFFFF" d="M127.164,43.103c-0.791,0.68-1.286,1.073-1.488,1.183c-0.309,0.155-0.634,0.234-0.977,0.234
		c-0.531,0-0.969-0.202-1.315-0.609c-0.345-0.405-0.52-0.944-0.52-1.616c0-0.421,0.084-0.784,0.252-1.088
		c0.23-0.43,0.632-0.832,1.201-1.207c0.569-0.374,1.519-0.835,2.847-1.382v-0.339c0-0.859-0.121-1.448-0.367-1.769
		c-0.244-0.32-0.602-0.48-1.07-0.48c-0.35,0-0.629,0.105-0.838,0.316c-0.217,0.219-0.326,0.464-0.326,0.737l0.021,0.551
		c0,0.289-0.066,0.511-0.199,0.668c-0.133,0.155-0.304,0.233-0.514,0.233s-0.381-0.081-0.514-0.245
		c-0.133-0.165-0.199-0.387-0.199-0.668c0-0.539,0.248-1.034,0.744-1.487c0.496-0.453,1.193-0.679,2.088-0.679
		c0.685,0,1.248,0.128,1.688,0.386c0.329,0.195,0.573,0.5,0.734,0.913c0.098,0.273,0.146,0.828,0.146,1.663v2.928
		c0,0.82,0.014,1.323,0.042,1.511c0.027,0.188,0.075,0.313,0.142,0.375s0.142,0.094,0.226,0.094c0.091,0,0.167-0.023,0.23-0.07
		c0.119-0.078,0.35-0.305,0.692-0.68v0.527c-0.636,0.937-1.241,1.405-1.814,1.405c-0.272,0-0.49-0.105-0.655-0.316
		C127.257,43.98,127.172,43.618,127.164,43.103z M127.164,42.482v-3.291c-0.846,0.383-1.395,0.651-1.646,0.808
		c-0.44,0.273-0.756,0.563-0.949,0.866c-0.191,0.306-0.288,0.633-0.288,0.985c0,0.451,0.121,0.829,0.362,1.129
		c0.24,0.301,0.519,0.451,0.834,0.451C125.902,43.431,126.465,43.114,127.164,42.482z"/>
	<path fill="#FFFFFF" d="M133.121,30.936v11.452c0,0.547,0.035,0.907,0.104,1.083c0.069,0.177,0.178,0.31,0.325,0.399
		c0.146,0.089,0.419,0.134,0.817,0.134v0.34h-3.786v-0.34c0.357,0,0.6-0.041,0.73-0.123c0.129-0.081,0.229-0.217,0.298-0.404
		c0.069-0.186,0.104-0.55,0.104-1.089v-7.833c0-0.976-0.019-1.576-0.059-1.798c-0.037-0.223-0.101-0.375-0.188-0.456
		c-0.087-0.083-0.197-0.124-0.33-0.124c-0.146,0-0.333,0.051-0.557,0.152l-0.146-0.34l2.307-1.054H133.121z"/>
	<path fill="#FFFFFF" d="M137.924,30.936v11.452c0,0.547,0.034,0.907,0.104,1.083c0.07,0.177,0.18,0.31,0.325,0.399
		c0.147,0.089,0.42,0.134,0.818,0.134v0.34h-3.786v-0.34c0.357,0,0.6-0.041,0.729-0.123c0.13-0.081,0.229-0.217,0.299-0.404
		c0.07-0.186,0.104-0.55,0.104-1.089v-7.833c0-0.976-0.02-1.576-0.057-1.798c-0.04-0.223-0.103-0.375-0.189-0.456
		c-0.088-0.083-0.198-0.124-0.33-0.124c-0.146,0-0.332,0.051-0.557,0.152l-0.146-0.34l2.306-1.054H137.924z"/>
	<path fill="#FFFFFF" d="M141.362,38.957c0,1.288,0.279,2.295,0.84,3.021c0.565,0.726,1.226,1.088,1.981,1.088
		c0.51,0,0.952-0.153,1.326-0.462c0.374-0.308,0.688-0.841,0.938-1.598l0.263,0.188c-0.118,0.858-0.462,1.643-1.028,2.353
		c-0.565,0.711-1.279,1.065-2.139,1.065c-0.93,0-1.726-0.404-2.387-1.212c-0.659-0.808-0.99-1.895-0.99-3.261
		c0-1.476,0.34-2.627,1.018-3.454c0.678-0.828,1.531-1.242,2.559-1.242c0.866,0,1.578,0.318,2.134,0.955
		c0.556,0.637,0.834,1.489,0.834,2.559H141.362z M141.362,38.418h3.586c-0.026-0.554-0.087-0.944-0.178-1.17
		c-0.14-0.352-0.35-0.629-0.629-0.832s-0.57-0.305-0.87-0.305c-0.469,0-0.889,0.204-1.259,0.609
		C141.642,37.126,141.426,37.692,141.362,38.418z"/>
	<path fill="#FFFFFF" d="M156.862,43.992v0.352h-4.909v-0.352h0.409c0.469,0,0.813-0.152,1.028-0.456
		c0.133-0.202,0.199-0.688,0.199-1.453v-8.255c0-0.648-0.035-1.078-0.105-1.289c-0.056-0.156-0.171-0.288-0.346-0.397
		c-0.251-0.157-0.51-0.234-0.776-0.234h-0.409v-0.352h4.909v0.352h-0.42c-0.462,0-0.8,0.156-1.018,0.468
		c-0.14,0.196-0.209,0.679-0.209,1.452v8.255c0,0.649,0.034,1.074,0.104,1.277c0.056,0.156,0.174,0.292,0.356,0.41
		c0.244,0.147,0.5,0.222,0.766,0.222H156.862z"/>
	<path fill="#FFFFFF" d="M162.618,43.992v0.352h-4.907v-0.352h0.409c0.469,0,0.811-0.152,1.027-0.456
		c0.133-0.202,0.199-0.688,0.199-1.453v-8.255c0-0.648-0.035-1.078-0.104-1.289c-0.056-0.156-0.172-0.288-0.347-0.397
		c-0.251-0.157-0.51-0.234-0.775-0.234h-0.409v-0.352h4.907v0.352h-0.419c-0.462,0-0.801,0.156-1.017,0.468
		c-0.14,0.196-0.211,0.679-0.211,1.452v8.255c0,0.649,0.035,1.074,0.106,1.277c0.055,0.156,0.174,0.292,0.355,0.41
		c0.245,0.147,0.499,0.222,0.766,0.222H162.618z"/>
	<path fill="#FFFFFF" d="M168.376,43.992v0.352h-4.908v-0.352h0.409c0.468,0,0.812-0.152,1.027-0.456
		c0.134-0.202,0.2-0.688,0.2-1.453v-8.255c0-0.648-0.036-1.078-0.106-1.289c-0.055-0.156-0.17-0.288-0.346-0.397
		c-0.251-0.157-0.51-0.234-0.775-0.234h-0.409v-0.352h4.908v0.352h-0.42c-0.461,0-0.8,0.156-1.017,0.468
		c-0.141,0.196-0.21,0.679-0.21,1.452v8.255c0,0.649,0.035,1.074,0.104,1.277c0.056,0.156,0.175,0.292,0.357,0.41
		c0.243,0.147,0.499,0.222,0.765,0.222H168.376z"/>
</g>
<g>
	<path fill="#FFFFFF" d="M91.33,59.638v-0.194h0.24c0.271,0,0.461-0.095,0.574-0.286c0.071-0.116,0.106-0.374,0.106-0.771v-4.571
		c0-0.446-0.043-0.722-0.128-0.831c-0.125-0.155-0.309-0.233-0.552-0.233h-0.24v-0.194h2.609c0.953,0,1.68,0.122,2.177,0.363
		c0.499,0.241,0.9,0.644,1.205,1.202c0.306,0.561,0.458,1.209,0.458,1.942c0,0.982-0.272,1.803-0.815,2.465
		c-0.605,0.739-1.53,1.109-2.772,1.109H91.33z M93.159,59.125c0.399,0.1,0.733,0.148,1.002,0.148c0.73,0,1.336-0.284,1.817-0.853
		c0.48-0.567,0.72-1.337,0.72-2.305c0-0.981-0.24-1.754-0.72-2.315c-0.481-0.563-1.098-0.843-1.853-0.843
		c-0.285,0-0.608,0.049-0.967,0.148V59.125z"/>
	<path fill="#FFFFFF" d="M99.941,54.715v3.839c0,0.304,0.02,0.503,0.059,0.601c0.039,0.097,0.097,0.171,0.173,0.221
		c0.077,0.05,0.218,0.074,0.425,0.074v0.188h-2.099v-0.188c0.211,0,0.353-0.022,0.425-0.067c0.072-0.046,0.129-0.12,0.17-0.225
		c0.041-0.103,0.062-0.305,0.062-0.604v-1.842c0-0.518-0.014-0.853-0.041-1.005c-0.024-0.112-0.06-0.189-0.106-0.233
		c-0.046-0.043-0.112-0.065-0.193-0.065c-0.086,0-0.192,0.027-0.317,0.079l-0.071-0.188l1.302-0.584H99.941z M99.548,52.212
		c0.133,0,0.245,0.053,0.337,0.155c0.092,0.104,0.138,0.229,0.138,0.377c0,0.143-0.046,0.267-0.138,0.372
		c-0.092,0.106-0.205,0.159-0.337,0.159c-0.132,0-0.246-0.053-0.34-0.159c-0.093-0.105-0.141-0.229-0.141-0.372
		c0-0.147,0.046-0.272,0.138-0.377C99.297,52.265,99.411,52.212,99.548,52.212z"/>
	<path fill="#FFFFFF" d="M103.927,54.715v1.628h-0.152c-0.121-0.51-0.275-0.858-0.462-1.044c-0.188-0.186-0.426-0.278-0.715-0.278
		c-0.22,0-0.397,0.064-0.534,0.194c-0.136,0.129-0.205,0.272-0.205,0.428c0,0.194,0.051,0.361,0.152,0.499
		c0.098,0.143,0.297,0.294,0.599,0.454l0.686,0.376c0.641,0.342,0.961,0.795,0.961,1.362c0,0.433-0.15,0.783-0.449,1.05
		c-0.298,0.269-0.632,0.402-0.999,0.402c-0.262,0-0.563-0.054-0.903-0.162c-0.105-0.035-0.191-0.052-0.258-0.052
		c-0.07,0-0.127,0.046-0.17,0.137h-0.152v-1.706h0.152c0.089,0.489,0.259,0.855,0.507,1.103c0.248,0.247,0.526,0.369,0.835,0.369
		c0.214,0,0.39-0.07,0.527-0.21c0.136-0.141,0.205-0.31,0.205-0.509c0-0.243-0.076-0.444-0.228-0.607
		c-0.153-0.162-0.457-0.368-0.912-0.619c-0.456-0.25-0.754-0.477-0.895-0.68c-0.14-0.199-0.21-0.45-0.21-0.754
		c0-0.393,0.121-0.721,0.363-0.985c0.242-0.263,0.557-0.396,0.944-0.396c0.172,0,0.379,0.038,0.622,0.116
		c0.16,0.053,0.265,0.079,0.316,0.079c0.051,0,0.091-0.012,0.121-0.036c0.029-0.023,0.063-0.077,0.102-0.159H103.927z"/>
	<path fill="#FFFFFF" d="M106.589,55.233v3.139c0,0.446,0.043,0.729,0.129,0.851c0.116,0.15,0.273,0.227,0.468,0.227h0.393v0.188
		h-2.585v-0.188h0.194c0.128,0,0.244-0.035,0.348-0.104c0.104-0.069,0.175-0.163,0.215-0.282c0.039-0.118,0.058-0.349,0.058-0.691
		v-3.139h-0.838v-0.375h0.838V54.54c0-0.476,0.069-0.878,0.208-1.209c0.139-0.332,0.35-0.598,0.633-0.802
		c0.283-0.202,0.603-0.304,0.958-0.304c0.333,0,0.637,0.118,0.915,0.355c0.18,0.156,0.27,0.332,0.27,0.525
		c0,0.104-0.04,0.203-0.12,0.296s-0.169,0.14-0.267,0.14c-0.071,0-0.146-0.029-0.225-0.088c-0.081-0.059-0.18-0.184-0.297-0.372
		c-0.117-0.191-0.225-0.318-0.322-0.384c-0.098-0.063-0.205-0.097-0.323-0.097c-0.144,0-0.268,0.042-0.369,0.126
		s-0.173,0.217-0.217,0.396c-0.043,0.18-0.064,0.642-0.064,1.385v0.351h1.113v0.375H106.589z"/>
	<path fill="#FFFFFF" d="M109.379,54.715v1.077c0.363-0.718,0.734-1.077,1.113-1.077c0.177,0,0.32,0.059,0.432,0.176
		c0.111,0.116,0.167,0.251,0.167,0.401c0,0.139-0.04,0.254-0.12,0.348c-0.08,0.093-0.177,0.14-0.29,0.14
		c-0.114,0-0.239-0.06-0.376-0.179s-0.236-0.179-0.299-0.179c-0.058,0-0.121,0.034-0.187,0.104c-0.142,0.143-0.288,0.376-0.44,0.7
		v2.295c0,0.265,0.031,0.463,0.094,0.598c0.039,0.095,0.111,0.174,0.215,0.236s0.252,0.094,0.448,0.094v0.188h-2.21v-0.188
		c0.219,0,0.381-0.038,0.487-0.116c0.078-0.057,0.133-0.146,0.164-0.267c0.015-0.056,0.023-0.225,0.023-0.506v-1.854
		c0-0.554-0.01-0.884-0.029-0.992c-0.02-0.108-0.057-0.186-0.111-0.233s-0.124-0.072-0.206-0.072c-0.098,0-0.207,0.027-0.328,0.079
		l-0.053-0.188l1.307-0.584H109.379z"/>
	<path fill="#FFFFFF" d="M115.124,54.858v2.893c0,0.553,0.013,0.892,0.036,1.018c0.023,0.125,0.061,0.211,0.113,0.259
		s0.113,0.071,0.179,0.071c0.099,0,0.21-0.03,0.335-0.09l0.064,0.188l-1.296,0.59h-0.212v-1.018
		c-0.371,0.445-0.654,0.726-0.85,0.843s-0.4,0.175-0.615,0.175c-0.242,0-0.451-0.077-0.631-0.233
		c-0.178-0.155-0.301-0.355-0.371-0.6c-0.071-0.244-0.105-0.589-0.105-1.034v-2.134c0-0.224-0.021-0.381-0.064-0.471
		c-0.043-0.088-0.107-0.155-0.193-0.2s-0.242-0.068-0.47-0.068v-0.188h1.513v3.196c0,0.446,0.07,0.738,0.211,0.879
		s0.309,0.211,0.504,0.211c0.137,0,0.291-0.047,0.464-0.143c0.171-0.096,0.375-0.274,0.608-0.538v-2.711
		c0-0.272-0.045-0.456-0.135-0.552c-0.089-0.095-0.274-0.146-0.557-0.155v-0.188H115.124z"/>
	<path fill="#FFFFFF" d="M117.422,53.281v1.577h1.008v0.363h-1.008v3.099c0,0.312,0.04,0.521,0.121,0.63
		c0.08,0.107,0.182,0.162,0.307,0.162c0.102,0,0.201-0.036,0.299-0.107s0.174-0.179,0.229-0.321h0.182
		c-0.109,0.342-0.264,0.6-0.465,0.772s-0.408,0.259-0.619,0.259c-0.148,0-0.291-0.045-0.428-0.133
		c-0.137-0.089-0.238-0.215-0.305-0.379c-0.067-0.164-0.1-0.42-0.1-0.766v-3.216h-0.686v-0.176c0.172-0.073,0.348-0.202,0.529-0.386
		c0.183-0.184,0.344-0.401,0.484-0.651c0.074-0.13,0.176-0.372,0.305-0.728H117.422z"/>
	<path fill="#FFFFFF" d="M121.297,58.95c-0.441,0.376-0.719,0.595-0.832,0.654c-0.172,0.087-0.354,0.13-0.545,0.13
		c-0.298,0-0.543-0.112-0.736-0.337s-0.29-0.523-0.29-0.896c0-0.233,0.046-0.434,0.141-0.603c0.13-0.238,0.353-0.461,0.671-0.668
		c0.318-0.208,0.85-0.462,1.592-0.765v-0.188c0-0.477-0.068-0.803-0.205-0.979s-0.336-0.266-0.598-0.266
		c-0.195,0-0.352,0.059-0.47,0.176c-0.121,0.121-0.182,0.256-0.182,0.407l0.012,0.305c0,0.16-0.037,0.284-0.11,0.371
		c-0.074,0.086-0.171,0.129-0.288,0.129c-0.118,0-0.213-0.046-0.287-0.137c-0.074-0.09-0.111-0.213-0.111-0.369
		c0-0.299,0.139-0.572,0.416-0.823c0.278-0.251,0.667-0.377,1.167-0.377c0.383,0,0.697,0.071,0.943,0.214
		c0.184,0.108,0.32,0.277,0.41,0.507c0.055,0.15,0.082,0.458,0.082,0.921v1.62c0,0.454,0.008,0.733,0.023,0.838
		c0.017,0.103,0.043,0.173,0.08,0.207s0.078,0.053,0.126,0.053c0.05,0,0.093-0.014,0.128-0.04c0.066-0.043,0.195-0.168,0.388-0.376
		v0.292c-0.355,0.519-0.694,0.778-1.015,0.778c-0.152,0-0.274-0.059-0.365-0.176C121.348,59.437,121.301,59.235,121.297,58.95z
		 M121.297,58.606v-1.823c-0.474,0.213-0.779,0.361-0.921,0.448c-0.245,0.151-0.422,0.312-0.53,0.48
		c-0.107,0.168-0.161,0.349-0.161,0.545c0,0.25,0.067,0.459,0.202,0.624c0.135,0.167,0.291,0.251,0.467,0.251
		C120.592,59.132,120.906,58.956,121.297,58.606z"/>
	<path fill="#FFFFFF" d="M128.607,59.099c-0.211,0.242-0.418,0.418-0.619,0.525c-0.201,0.108-0.417,0.162-0.648,0.162
		c-0.473,0-0.885-0.219-1.236-0.657c-0.352-0.439-0.527-1.001-0.527-1.684c0-0.687,0.193-1.315,0.584-1.884
		c0.388-0.568,0.89-0.853,1.502-0.853c0.385,0,0.699,0.134,0.945,0.401v-0.881c0-0.546-0.012-0.881-0.035-1.006
		s-0.061-0.211-0.109-0.256c-0.048-0.046-0.111-0.068-0.189-0.068c-0.082,0-0.19,0.028-0.322,0.084l-0.065-0.188l1.29-0.584h0.211
		v5.532c0,0.557,0.012,0.898,0.035,1.024c0.023,0.125,0.062,0.211,0.114,0.259s0.114,0.071,0.185,0.071
		c0.082,0,0.193-0.03,0.334-0.09l0.053,0.188l-1.283,0.59h-0.217V59.099z M128.607,58.736v-2.465
		c-0.016-0.237-0.072-0.454-0.168-0.647c-0.096-0.195-0.221-0.343-0.375-0.442c-0.154-0.099-0.306-0.148-0.453-0.148
		c-0.278,0-0.525,0.138-0.746,0.415c-0.285,0.359-0.428,0.887-0.428,1.582c0,0.705,0.139,1.244,0.416,1.618
		c0.279,0.374,0.587,0.561,0.927,0.561C128.066,59.209,128.342,59.052,128.607,58.736z"/>
	<path fill="#FFFFFF" d="M131.11,56.653c0,0.714,0.155,1.271,0.469,1.674c0.317,0.401,0.687,0.604,1.108,0.604
		c0.285,0,0.531-0.085,0.74-0.257c0.211-0.17,0.385-0.465,0.525-0.885l0.146,0.104c-0.066,0.476-0.258,0.91-0.574,1.304
		c-0.316,0.393-0.715,0.59-1.196,0.59c-0.519,0-0.964-0.224-1.333-0.671c-0.37-0.447-0.555-1.05-0.555-1.807
		c0-0.817,0.189-1.454,0.568-1.911c0.38-0.459,0.855-0.688,1.432-0.688c0.484,0,0.882,0.176,1.191,0.528
		c0.312,0.353,0.467,0.825,0.467,1.416H131.11z M131.11,56.356h2.005c-0.016-0.308-0.049-0.523-0.1-0.649
		c-0.078-0.193-0.196-0.348-0.352-0.46c-0.156-0.112-0.319-0.168-0.487-0.168c-0.262,0-0.497,0.111-0.704,0.337
		C131.266,55.64,131.145,55.954,131.11,56.356z"/>
	<path fill="#FFFFFF" d="M138.579,52.212v6.342c0,0.304,0.02,0.503,0.058,0.601c0.04,0.097,0.1,0.171,0.183,0.221
		c0.082,0.05,0.233,0.074,0.457,0.074v0.188h-2.116v-0.188c0.198,0,0.335-0.022,0.406-0.067c0.073-0.046,0.129-0.12,0.168-0.225
		c0.038-0.103,0.059-0.305,0.059-0.604v-4.338c0-0.541-0.011-0.871-0.032-0.995c-0.021-0.124-0.057-0.208-0.105-0.253
		c-0.049-0.046-0.111-0.068-0.186-0.068c-0.081,0-0.186,0.028-0.31,0.084l-0.083-0.188l1.29-0.584H138.579z"/>
	<path fill="#FFFFFF" d="M142.226,58.95c-0.442,0.376-0.72,0.595-0.833,0.654c-0.172,0.087-0.354,0.13-0.545,0.13
		c-0.298,0-0.542-0.112-0.736-0.337c-0.193-0.225-0.29-0.523-0.29-0.896c0-0.233,0.047-0.434,0.141-0.603
		c0.129-0.238,0.353-0.461,0.671-0.668c0.318-0.208,0.85-0.462,1.593-0.765v-0.188c0-0.477-0.069-0.803-0.206-0.979
		s-0.336-0.266-0.599-0.266c-0.195,0-0.352,0.059-0.469,0.176c-0.12,0.121-0.182,0.256-0.182,0.407l0.012,0.305
		c0,0.16-0.037,0.284-0.111,0.371c-0.074,0.086-0.169,0.129-0.287,0.129c-0.117,0-0.213-0.046-0.287-0.137
		c-0.074-0.09-0.111-0.213-0.111-0.369c0-0.299,0.139-0.572,0.416-0.823s0.667-0.377,1.167-0.377c0.383,0,0.697,0.071,0.943,0.214
		c0.185,0.108,0.321,0.277,0.411,0.507c0.055,0.15,0.081,0.458,0.081,0.921v1.62c0,0.454,0.009,0.733,0.024,0.838
		c0.016,0.103,0.041,0.173,0.079,0.207c0.036,0.034,0.079,0.053,0.126,0.053c0.051,0,0.094-0.014,0.128-0.04
		c0.066-0.043,0.196-0.168,0.388-0.376v0.292c-0.355,0.519-0.693,0.778-1.014,0.778c-0.153,0-0.275-0.059-0.367-0.176
		C142.276,59.437,142.229,59.235,142.226,58.95z M142.226,58.606v-1.823c-0.475,0.213-0.781,0.361-0.922,0.448
		c-0.245,0.151-0.422,0.312-0.53,0.48c-0.107,0.168-0.161,0.349-0.161,0.545c0,0.25,0.067,0.459,0.203,0.624
		c0.134,0.167,0.289,0.251,0.465,0.251C141.519,59.132,141.834,58.956,142.226,58.606z"/>
	<path fill="#FFFFFF" d="M146.264,54.858h2.034v0.188h-0.135c-0.121,0-0.214,0.034-0.279,0.101c-0.063,0.066-0.096,0.156-0.096,0.27
		c0,0.121,0.033,0.266,0.1,0.435l1.002,2.639l1.009-2.743c0.073-0.194,0.111-0.341,0.111-0.44c0-0.048-0.014-0.09-0.042-0.124
		c-0.031-0.052-0.074-0.087-0.129-0.106s-0.163-0.029-0.328-0.029v-0.188h1.414v0.188c-0.164,0.018-0.278,0.055-0.341,0.111
		c-0.109,0.103-0.209,0.278-0.299,0.524l-1.53,4.104h-0.193l-1.548-4.04c-0.066-0.185-0.13-0.319-0.192-0.402
		c-0.063-0.081-0.143-0.151-0.24-0.207c-0.055-0.03-0.161-0.061-0.317-0.091V54.858z"/>
	<path fill="#FFFFFF" d="M152.806,54.715v3.839c0,0.304,0.02,0.503,0.059,0.601c0.039,0.097,0.097,0.171,0.173,0.221
		s0.218,0.074,0.425,0.074v0.188h-2.099v-0.188c0.211,0,0.353-0.022,0.426-0.067c0.072-0.046,0.129-0.12,0.17-0.225
		c0.041-0.103,0.062-0.305,0.062-0.604v-1.842c0-0.518-0.014-0.853-0.041-1.005c-0.024-0.112-0.06-0.189-0.105-0.233
		c-0.047-0.043-0.111-0.065-0.194-0.065c-0.086,0-0.19,0.027-0.316,0.079l-0.069-0.188l1.301-0.584H152.806z M152.412,52.212
		c0.134,0,0.246,0.053,0.338,0.155c0.092,0.104,0.138,0.229,0.138,0.377c0,0.143-0.046,0.267-0.138,0.372
		c-0.092,0.106-0.204,0.159-0.338,0.159c-0.132,0-0.245-0.053-0.339-0.159c-0.094-0.105-0.141-0.229-0.141-0.372
		c0-0.147,0.046-0.272,0.138-0.377C152.161,52.265,152.276,52.212,152.412,52.212z"/>
	<path fill="#FFFFFF" d="M157.051,59.099c-0.211,0.242-0.418,0.418-0.62,0.525c-0.2,0.108-0.417,0.162-0.646,0.162
		c-0.474,0-0.885-0.219-1.237-0.657c-0.352-0.439-0.528-1.001-0.528-1.684c0-0.687,0.195-1.315,0.584-1.884s0.891-0.853,1.504-0.853
		c0.383,0,0.697,0.134,0.944,0.401v-0.881c0-0.546-0.012-0.881-0.035-1.006c-0.024-0.125-0.061-0.211-0.109-0.256
		c-0.049-0.046-0.112-0.068-0.19-0.068c-0.081,0-0.189,0.028-0.322,0.084l-0.063-0.188l1.288-0.584h0.211v5.532
		c0,0.557,0.013,0.898,0.035,1.024c0.024,0.125,0.063,0.211,0.114,0.259c0.054,0.048,0.115,0.071,0.186,0.071
		c0.082,0,0.193-0.03,0.334-0.09l0.053,0.188l-1.283,0.59h-0.217V59.099z M157.051,58.736v-2.465
		c-0.017-0.237-0.072-0.454-0.168-0.647c-0.095-0.195-0.221-0.343-0.375-0.442c-0.155-0.099-0.307-0.148-0.454-0.148
		c-0.278,0-0.525,0.138-0.745,0.415c-0.285,0.359-0.428,0.887-0.428,1.582c0,0.705,0.139,1.244,0.416,1.618
		c0.278,0.374,0.586,0.561,0.926,0.561C156.509,59.209,156.785,59.052,157.051,58.736z"/>
	<path fill="#FFFFFF" d="M161.276,58.95c-0.441,0.376-0.72,0.595-0.832,0.654c-0.173,0.087-0.354,0.13-0.545,0.13
		c-0.297,0-0.543-0.112-0.736-0.337c-0.192-0.225-0.29-0.523-0.29-0.896c0-0.233,0.046-0.434,0.141-0.603
		c0.13-0.238,0.353-0.461,0.671-0.668c0.318-0.208,0.849-0.462,1.592-0.765v-0.188c0-0.477-0.068-0.803-0.205-0.979
		s-0.336-0.266-0.598-0.266c-0.196,0-0.353,0.059-0.47,0.176c-0.12,0.121-0.181,0.256-0.181,0.407l0.011,0.305
		c0,0.16-0.036,0.284-0.11,0.371c-0.075,0.086-0.171,0.129-0.288,0.129s-0.213-0.046-0.287-0.137
		c-0.074-0.09-0.111-0.213-0.111-0.369c0-0.299,0.139-0.572,0.416-0.823c0.278-0.251,0.666-0.377,1.167-0.377
		c0.383,0,0.697,0.071,0.944,0.214c0.183,0.108,0.32,0.277,0.409,0.507c0.055,0.15,0.082,0.458,0.082,0.921v1.62
		c0,0.454,0.008,0.733,0.024,0.838c0.015,0.103,0.042,0.173,0.079,0.207s0.078,0.053,0.126,0.053c0.05,0,0.093-0.014,0.128-0.04
		c0.066-0.043,0.195-0.168,0.388-0.376v0.292c-0.356,0.519-0.694,0.778-1.014,0.778c-0.152,0-0.274-0.059-0.367-0.176
		C161.329,59.437,161.28,59.235,161.276,58.95z M161.276,58.606v-1.823c-0.473,0.213-0.779,0.361-0.92,0.448
		c-0.247,0.151-0.424,0.312-0.531,0.48c-0.107,0.168-0.161,0.349-0.161,0.545c0,0.25,0.067,0.459,0.203,0.624
		c0.134,0.167,0.289,0.251,0.465,0.251C160.571,59.132,160.886,58.956,161.276,58.606z"/>
	<path fill="#FFFFFF" d="M164.026,58.626c0.147,0,0.272,0.056,0.371,0.168c0.1,0.112,0.15,0.249,0.15,0.409
		c0,0.159-0.052,0.298-0.152,0.412c-0.103,0.114-0.226,0.171-0.369,0.171c-0.146,0-0.269-0.057-0.37-0.171s-0.152-0.253-0.152-0.412
		c0-0.164,0.051-0.302,0.152-0.411C163.758,58.682,163.881,58.626,164.026,58.626z"/>
</g>
</svg>
