<?xml version="1.0" encoding="utf-8"?>
<!-- Generator: Adobe Illustrator 16.0.0, SVG Export Plug-In . SVG Version: 6.00 Build 0)  -->
<!DOCTYPE svg PUBLIC "-//W3C//DTD SVG 1.1//EN" "http://www.w3.org/Graphics/SVG/1.1/DTD/svg11.dtd">
<svg version="1.1" id="Layer_1" xmlns="http://www.w3.org/2000/svg" xmlns:xlink="http://www.w3.org/1999/xlink" x="0px" y="0px"
	 width="40.815px" height="32.147px" viewBox="0 0 40.815 32.147" enable-background="new 0 0 40.815 32.147" xml:space="preserve">
<path fill="#7B7B7B" d="M10.656,13.667v1.247h18.212v-1.247h4.714v1.247h3.109c2.057,0,3.769-1.466,4.124-3.393V4.153H27.21v-3.24
	c0-0.422-0.347-0.764-0.774-0.764H14.467c-0.428,0-0.775,0.342-0.775,0.764v3.24H0v8.026c0.583,1.592,2.128,2.735,3.943,2.735h1.998
	v-1.248H10.656L10.656,13.667z M15.241,1.676H25.66v2.478H15.241V1.676z M33.582,19.139v-3.206h3.109
	c1.676,0,3.166-0.784,4.124-1.997v18.212H0V14.153c0.959,1.087,2.37,1.779,3.943,1.779h1.998v3.206h4.715v-3.206h18.212v3.206
	H33.582z"/>
</svg>
