<?xml version="1.0" encoding="utf-8"?>
<!-- Generator: Adobe Illustrator 16.0.0, SVG Export Plug-In . SVG Version: 6.00 Build 0)  -->
<!DOCTYPE svg PUBLIC "-//W3C//DTD SVG 1.1//EN" "http://www.w3.org/Graphics/SVG/1.1/DTD/svg11.dtd">
<svg version="1.1" id="Layer_1" xmlns="http://www.w3.org/2000/svg" xmlns:xlink="http://www.w3.org/1999/xlink" x="0px" y="0px"
	 width="39px" height="29.998px" viewBox="0 0 39 29.998" enable-background="new 0 0 39 29.998" xml:space="preserve">
<path fill="#FFFFFF" d="M10.421,12.673v1.169h16.956v-1.169h4.389v1.169h2.895c1.915,0,3.509-1.375,3.84-3.181V3.754H25.834V0.716
	C25.834,0.321,25.51,0,25.111,0H13.969c-0.398,0-0.722,0.321-0.722,0.716v3.038H0.5v7.524c0.543,1.493,1.981,2.565,3.672,2.565
	h1.859v-1.169L10.421,12.673L10.421,12.673z M14.69,1.431h9.7v2.322h-9.7V1.431z M31.766,17.802v-3.005h2.895
	c1.561,0,2.948-0.735,3.84-1.872v17.073h-38v-16.87c0.894,1.02,2.206,1.668,3.672,1.668h1.859v3.005h4.39v-3.005h16.956v3.005
	H31.766z"/>
</svg>
