<?xml version="1.0" encoding="utf-8"?>
<!-- Generator: Adobe Illustrator 16.0.0, SVG Export Plug-In . SVG Version: 6.00 Build 0)  -->
<!DOCTYPE svg PUBLIC "-//W3C//DTD SVG 1.1//EN" "http://www.w3.org/Graphics/SVG/1.1/DTD/svg11.dtd">
<svg version="1.1" id="Layer_1" xmlns="http://www.w3.org/2000/svg" xmlns:xlink="http://www.w3.org/1999/xlink" x="0px" y="0px"
	 width="117px" height="73px" viewBox="0 0 117 73" enable-background="new 0 0 117 73" xml:space="preserve">
<g>
	<g>
		<path fill="#FFFFFF" d="M8.237,62.798c-0.513,0.084-0.796,0.201-0.847,0.332l-2.869,8.742H3.808L0.958,63.13v0.012
			c-0.052-0.104-0.338-0.221-0.862-0.344V62.13h3.438v0.668c-0.448,0.094-0.69,0.174-0.729,0.229
			c0.069,0.227,0.237,0.771,0.504,1.652c0.265,0.873,0.641,2.119,1.127,3.719l0.045-0.271l1.673-5.1
			c-0.038-0.066-0.277-0.145-0.71-0.229V62.13h2.794V62.798z"/>
		<path fill="#FFFFFF" d="M11.529,71.888V71.22c0.465-0.078,0.711-0.156,0.743-0.232c-0.039-0.098-0.071-0.176-0.088-0.232
			c-0.02-0.061-0.054-0.176-0.101-0.348H9.095c-0.008,0.016-0.019,0.037-0.03,0.07c-0.006,0.031-0.02,0.068-0.042,0.117h0.014
			l-0.133,0.393c0,0.049,0.246,0.123,0.731,0.232v0.668H6.197v-0.684c0.534-0.098,0.818-0.203,0.846-0.318l2.868-8.773h0.716
			l2.853,8.773c0.029,0.098,0.315,0.203,0.86,0.318v0.684H11.529z M9.402,69.362h2.314l-1.223-3.762l-0.101,0.479L9.402,69.362z"/>
		<path fill="#FFFFFF" d="M14.702,71.888v-0.684c0.507-0.09,0.757-0.176,0.757-0.262v-7.857c0-0.086-0.274-0.184-0.816-0.287V62.13
			h3.367v0.668c-0.485,0.104-0.731,0.201-0.731,0.277v7.822h1.922c0.116,0,0.226-0.408,0.321-1.232h0.656l0.174,2.223H14.702z"/>
		<path fill="#FFFFFF" d="M20.704,71.888v-0.684c0.503-0.09,0.753-0.176,0.753-0.262v-7.857c0-0.086-0.268-0.184-0.813-0.287V62.13
			h3.367v0.668c-0.488,0.104-0.731,0.201-0.731,0.277v7.822h1.923c0.115,0,0.223-0.408,0.32-1.232h0.656l0.175,2.223H20.704z"/>
		<path fill="#FFFFFF" d="M29.225,63.114v3.4h2.471l-0.19,0.988h-2.281v3.395h1.977c0.106,0,0.209-0.408,0.304-1.232h0.672
			l0.174,2.223h-5.709v-0.654c0.545-0.109,0.814-0.223,0.814-0.348V63.13c0-0.129-0.269-0.244-0.814-0.35v-0.65h5.709l-0.174,2.221
			h-0.672c-0.095-0.824-0.198-1.236-0.304-1.236H29.225z"/>
		<path fill="#FFFFFF" d="M37.944,63.114v3.4h2.476l-0.191,0.988h-2.285v3.395h1.979c0.108,0,0.209-0.408,0.306-1.232h0.669
			l0.178,2.223h-5.711v-0.654c0.544-0.109,0.816-0.223,0.816-0.348V63.13c0-0.129-0.272-0.244-0.816-0.35v-0.65h5.711l-0.178,2.221
			h-0.669c-0.097-0.824-0.198-1.236-0.306-1.236H37.944z"/>
		<path fill="#FFFFFF" d="M47.305,69.313c0,1.715-1.106,2.574-3.316,2.574c-0.66,0-1.407-0.295-2.229-0.887l0.217-0.699
			c0.69,0.396,1.363,0.596,2.012,0.596c1.094-0.047,1.64-0.549,1.64-1.496c0-0.43-0.136-0.807-0.408-1.117
			c-0.282-0.311-0.701-0.578-1.264-0.795c-0.787-0.324-1.369-0.736-1.755-1.244c-0.378-0.508-0.575-1.084-0.575-1.721
			c0-1.6,1.082-2.395,3.247-2.395h1.837l-0.176,2.221h-0.67c-0.088-0.824-0.186-1.236-0.308-1.236h-0.683
			c-1.049,0-1.577,0.482-1.587,1.449v0.047c0,0.494,0.139,0.891,0.424,1.189c0.278,0.305,0.701,0.539,1.25,0.715
			c0.787,0.252,1.374,0.613,1.763,1.088c0.392,0.477,0.581,1.035,0.581,1.684V69.313z"/>
		<path fill="#FFFFFF" d="M53.383,71.015c-0.344,0.303-0.718,0.537-1.133,0.705c-0.414,0.17-0.872,0.256-1.377,0.256
			c-0.356,0-0.714-0.059-1.069-0.162c-0.355-0.105-0.671-0.262-0.96-0.463c-0.286-0.209-0.52-0.457-0.697-0.756
			c-0.185-0.299-0.27-0.645-0.27-1.031v-5.039c0-1.6,1.106-2.395,3.32-2.395h2.129l-0.177,2.219h-0.673
			c-0.097-0.822-0.205-1.234-0.318-1.234h-0.991c-1.018,0-1.531,0.623-1.531,1.873v4.115c0,1.246,0.523,1.869,1.561,1.869
			c0.688-0.008,1.32-0.229,1.891-0.654L53.383,71.015z"/>
		<path fill="#FFFFFF" d="M60.442,69.563c0,1.6-1.062,2.396-3.191,2.396h-0.057c-2.163,0-3.248-0.797-3.248-2.396v-5.115
			c0-1.598,1.085-2.391,3.248-2.391h0.057c2.129,0,3.191,0.793,3.191,2.391V69.563z M58.679,64.919c0-0.641-0.117-1.115-0.347-1.422
			c-0.236-0.301-0.615-0.457-1.138-0.457c-0.988,0-1.481,0.629-1.481,1.879v4.184c0,1.246,0.493,1.869,1.481,1.869
			c0.991,0,1.485-0.623,1.485-1.869V64.919z"/>
		<path fill="#FFFFFF" d="M68.072,62.765c-0.546,0.109-0.813,0.234-0.813,0.365v9.51l-4.328-6.707v4.996
			c0,0.086,0.259,0.182,0.772,0.291v0.668h-2.707v-0.684c0.541-0.09,0.813-0.182,0.813-0.275V63.13c0-0.131-0.272-0.256-0.813-0.365
			v-0.652h1.789l3.347,5.24v-5.24h1.94V62.765z"/>
		<path fill="#FFFFFF" d="M74.698,69.2c0,0.928-0.241,1.609-0.722,2.043c-0.479,0.428-1.208,0.645-2.177,0.645h-3.233V71.22
			c0.544-0.109,0.814-0.205,0.814-0.291v-7.74c0-0.162-0.271-0.289-0.814-0.377V62.13h2.794c2.224,0,3.338,0.896,3.338,2.684V69.2z
			 M72.937,64.987c0-1.221-0.522-1.826-1.576-1.826c-0.046,0-0.086,0-0.113,0.004c-0.031,0.002-0.065,0.016-0.103,0.023v7.668
			c0.03,0.008,0.066,0.014,0.118,0.014h0.111c1.041,0,1.562-0.617,1.562-1.848V64.987z"/>
		<path fill="#FFFFFF" d="M75.193,71.888V71.22c0.544-0.109,0.815-0.205,0.815-0.291v-7.844c0-0.086-0.271-0.184-0.815-0.287V62.13
			h3.393v0.668c-0.545,0.104-0.814,0.201-0.814,0.287v7.857c0,0.074,0.27,0.168,0.814,0.277v0.668H75.193z"/>
		<path fill="#FFFFFF" d="M85.151,69.2c0,0.928-0.238,1.609-0.718,2.043c-0.481,0.428-1.208,0.645-2.178,0.645H79.02V71.22
			c0.546-0.109,0.819-0.205,0.819-0.291v-7.74c0-0.162-0.273-0.289-0.819-0.377V62.13h2.801c2.219,0,3.331,0.896,3.331,2.684V69.2z
			 M83.391,64.987c0-1.221-0.523-1.826-1.57-1.826c-0.053,0-0.089,0-0.119,0.004c-0.029,0.002-0.064,0.016-0.104,0.023v7.668
			c0.031,0.008,0.074,0.014,0.12,0.014h0.116c1.038,0,1.557-0.617,1.557-1.848V64.987z"/>
		<path fill="#FFFFFF" d="M92.306,69.563c0,1.6-1.064,2.396-3.188,2.396h-0.062c-2.165,0-3.245-0.797-3.245-2.396v-5.115
			c0-1.598,1.08-2.391,3.245-2.391h0.062c2.124,0,3.188,0.793,3.188,2.391V69.563z M90.542,64.919c0-0.641-0.117-1.115-0.353-1.422
			c-0.231-0.301-0.609-0.457-1.134-0.457c-0.989,0-1.487,0.629-1.487,1.879v4.184c0,1.246,0.498,1.869,1.487,1.869
			c0.992,0,1.486-0.623,1.486-1.869V64.919z"/>
		<path fill="#FFFFFF" d="M14.043,58.616l1.796-5.197h1.064l1.84,5.197h-1.017l-0.472-1.377h-1.835l-0.456,1.377H14.043z
			 M15.611,56.522h1.459l-0.707-2.225h-0.024L15.611,56.522z M16.966,51.536c0.228,0.133,0.454,0.311,0.454,0.516
			c0,0.16-0.119,0.27-0.312,0.396c-0.297,0.186-0.777,0.422-1.177,0.633l-0.232-0.322L16.966,51.536z"/>
		<path fill="#FFFFFF" d="M20.339,58.616h-0.954v-5.197h1.745c1.15,0,1.876,0.377,1.876,1.439c0,0.781-0.469,1.203-0.901,1.373
			c0.211,0.08,0.315,0.213,0.432,0.477l0.859,1.908h-1.013l-0.757-1.645c-0.106-0.242-0.239-0.402-0.515-0.402h-0.772V58.616z
			 M21.12,55.829c0.565,0,0.915-0.305,0.915-0.9c0-0.668-0.409-0.75-1.148-0.75h-0.548v1.65H21.12z"/>
		<polygon fill="#FFFFFF" points="24.039,53.419 27.179,53.419 27.179,54.253 24.996,54.253 24.996,55.556 26.861,55.556 
			26.861,56.378 24.996,56.378 24.996,57.784 27.234,57.784 27.234,58.616 24.039,58.616 		"/>
		<path fill="#FFFFFF" d="M27.571,58.616l1.799-5.195h1.065l1.837,5.195h-1.018l-0.467-1.377h-1.832l-0.46,1.377H27.571z
			 M29.141,56.522h1.457l-0.703-2.225H29.87L29.141,56.522z"/>
		<path fill="#FFFFFF" d="M35.512,58.616H34.56v-5.197h1.745c1.147,0,1.875,0.377,1.875,1.439c0,0.781-0.468,1.203-0.898,1.373
			c0.21,0.08,0.312,0.213,0.43,0.477l0.857,1.908h-1.013l-0.752-1.645c-0.111-0.242-0.24-0.402-0.518-0.402h-0.774V58.616z
			 M36.297,55.829c0.56,0,0.914-0.305,0.914-0.9c0-0.668-0.407-0.75-1.147-0.75h-0.552v1.65H36.297z"/>
		<polygon fill="#FFFFFF" points="39.218,53.419 42.354,53.419 42.354,54.253 40.172,54.253 40.172,55.556 42.043,55.556 
			42.043,56.378 40.172,56.378 40.172,57.784 42.407,57.784 42.407,58.616 39.218,58.616 		"/>
		<path fill="#FFFFFF" d="M43.231,57.429c0.295,0.184,0.904,0.449,1.447,0.449c0.414,0,0.837-0.129,0.837-0.715
			c0-0.492-0.446-0.641-0.996-0.787c-0.771-0.213-1.496-0.52-1.496-1.518c0-0.953,0.738-1.529,1.762-1.529
			c0.73,0,1.386,0.32,1.793,0.734l-0.508,0.629c-0.407-0.336-0.854-0.553-1.285-0.553c-0.352,0-0.764,0.15-0.764,0.635
			c0,0.48,0.45,0.635,1.037,0.814c0.712,0.225,1.467,0.527,1.467,1.531c0,1.035-0.737,1.59-1.863,1.59
			c-0.766,0-1.52-0.307-1.786-0.504L43.231,57.429z"/>
		<rect x="47.417" y="53.421" fill="#FFFFFF" width="0.954" height="5.195"/>
		<path fill="#FFFFFF" d="M49.482,53.419h1.698c1.496,0,2.441,0.793,2.441,2.414c0,2.045-1.141,2.783-2.402,2.783h-1.737V53.419z
			 M50.436,57.866h0.802c0.872,0,1.421-0.646,1.421-1.893c0-1.402-0.68-1.795-1.528-1.795h-0.695V57.866z"/>
		<polygon fill="#FFFFFF" points="54.521,53.419 57.663,53.419 57.663,54.253 55.477,54.253 55.477,55.556 57.348,55.556 
			57.348,56.378 55.477,56.378 55.477,57.784 57.712,57.784 57.712,58.616 54.521,58.616 		"/>
		<polygon fill="#FFFFFF" points="62.622,53.419 62.622,58.616 61.709,58.616 59.461,54.956 59.442,54.956 59.442,58.616 
			58.508,58.616 58.508,53.419 59.468,53.419 61.658,57.03 61.675,57.03 61.675,53.419 		"/>
		<path fill="#FFFFFF" d="M67.113,57.372l0.494,0.621c-0.516,0.486-1.091,0.717-1.769,0.717c-1.416,0-2.315-0.885-2.315-2.664
			c0-2.037,1.251-2.717,2.359-2.717c0.611,0,1.292,0.246,1.786,0.969l-0.679,0.49c-0.333-0.418-0.686-0.656-1.151-0.656
			c-0.808,0-1.338,0.672-1.338,1.852c0,1.193,0.436,1.938,1.393,1.938C66.33,57.921,66.722,57.724,67.113,57.372"/>
		<rect x="68.352" y="53.421" fill="#FFFFFF" width="0.951" height="5.195"/>
		<path fill="#FFFFFF" d="M69.964,58.616l1.798-5.195h1.064l1.842,5.195h-1.02l-0.468-1.377h-1.835l-0.461,1.377H69.964z
			 M71.536,56.522h1.453l-0.702-2.225h-0.026L71.536,56.522z"/>
		<polygon fill="#FFFFFF" points="75.318,53.419 76.27,53.419 76.27,57.784 78.48,57.784 78.48,58.616 75.318,58.616 		"/>
		<path fill-rule="evenodd" clip-rule="evenodd" fill="#FFFFFF" d="M46.866,49.841c13.623,0,24.733-11.113,24.733-24.742
			c0-13.629-11.11-24.738-24.733-24.738c-13.625,0-24.74,11.109-24.74,24.738C22.126,38.728,33.241,49.841,46.866,49.841"/>
		<path fill-rule="evenodd" clip-rule="evenodd" fill="#B6D44C" d="M46.866,48.405c12.835,0,23.305-10.467,23.305-23.306
			c0-12.835-10.47-23.3-23.305-23.3s-23.307,10.465-23.307,23.3C23.559,37.938,34.031,48.405,46.866,48.405"/>
		<path fill-rule="evenodd" clip-rule="evenodd" fill="#1D181C" d="M46.865,1.799c12.87,0,23.306,10.43,23.306,23.3
			c0,12.871-10.436,23.306-23.306,23.306c-0.653,0-1.301-0.029-1.939-0.08v-3.27c0.635,0.057,1.286,0.088,1.939,0.088
			c11.068,0,20.049-8.974,20.049-20.044c0-11.067-8.981-20.045-20.049-20.045c-0.653,0-1.304,0.036-1.939,0.094V1.88
			C45.564,1.827,46.212,1.799,46.865,1.799"/>
		<path fill-rule="evenodd" clip-rule="evenodd" fill="#FFFFFF" d="M53.949,34.597c-3.299,1.426-6.715,2.568-10.257,3.427
			c-3.538,0.855-6.434,0.191-8.691-2.007c-2.513-2.464-3.44-5.3-2.775-8.489c0.666-3.187,1.659-6.672,2.99-10.45
			c0.607-1.684,1.604-2.781,2.985-3.284c1.396-0.504,2.962-0.657,4.701-0.47c1.735,0.189,3.548,0.596,5.42,1.216
			c1.875,0.632,3.59,1.232,5.137,1.796c1.677,0.606,2.987,1.742,3.939,3.423c0.944,1.67,1.467,3.477,1.568,5.42
			c0.095,1.929-0.257,3.782-1.061,5.556C57.102,32.507,55.779,33.799,53.949,34.597 M38.768,30.938
			c1.445,0.146,2.85,0.434,4.223,0.862c1.372,0.428,2.638,0.756,3.801,0.968c1.164,0.213,2.177,0.197,3.055-0.037
			c0.865-0.24,1.518-0.947,1.941-2.13c0.805-2.248,1.179-4.397,1.112-6.442c-0.068-2.044-0.624-4.232-1.648-6.571
			c-0.467-1.084-2.222-1.646-5.265-1.66c-3.044-0.02-5.634,0.646-7.77,1.985c-0.897,0.574-1.604,1.546-2.143,2.918
			c-0.53,1.371-0.808,2.785-0.832,4.229c-0.021,1.457,0.248,2.766,0.802,3.931C36.605,30.147,37.51,30.798,38.768,30.938
			 M35.992,33.337L35.992,33.337c0.8,1.832,2.088,3.154,3.869,3.953c1.78,0.797,3.641,1.143,5.576,1.037
			c1.936-0.102,3.748-0.621,5.424-1.562c1.676-0.943,2.81-2.243,3.408-3.902c0.561-1.569,1.165-3.295,1.8-5.163
			c0.629-1.864,1.033-3.68,1.219-5.418c0.183-1.742,0.022-3.309-0.491-4.694c-0.51-1.369-1.615-2.359-3.304-2.972
			c-3.762-1.337-7.132-2.229-10.091-2.673c-2.966-0.448-5.69,0.604-8.164,3.128c-2.178,2.249-2.949,5.031-2.314,8.348
			C33.559,26.736,34.582,30.048,35.992,33.337"/>
	</g>
	<path fill-rule="evenodd" clip-rule="evenodd" fill="#FFFFFF" d="M110.447,67.386c3.228-2.768,5.589-9.621,3.755-13.586
		c-1.008-2.178-3.276-3.277-6.389-3.908c2.414-2.584,3.846-5.156,4.644-8.861c0.682-3.186-0.171-6.463,0.418-9.182
		c0.532-2.443,1.492-4.092,2.896-5.036c0.335-0.22,1.249-0.645,1.121-1.616c-0.193-0.712-1.17-0.973-1.814-1.041
		c-3.557-0.405-6.904,0.12-9.794,0.998c-0.862,0.267-3.766,1.631-4.074,1.495c-0.373-0.176-0.771-3.012-0.769-3.327
		c0.006-1.608,0.552-2.826,1.324-3.749c1.138-1.357,0.156-2.345-1.612-2.027c-6.374,1.146-11.749,4.478-14.503,12.047
		c-2.581,7.082-0.225,12.875,1.47,17.818c-0.331-0.611-0.781-1.166-1.729-1.449c-0.316-0.834-0.433-1.518-0.935-2.299
		c-1.809-2.811-7.548-4.193-7.621-7.508c-0.059-2.784,3.465-2.245,2.789,0.153c-0.209-0.53-1.2-0.397-1.216,0.447
		c0.208,0.812,1.008,0.736,1.327,0.334c0.581-0.733,0.622-2.681-0.601-3.224c-1.121-0.477-2.345,0.3-2.66,1.246
		c-1.448,4.335,6.509,6.078,7.55,9.099c-1.538-2.652-9.892-3.135-11.58-5.648c-0.467-0.695-1.014-2.169,0.417-2.641
		c0.844-0.169,1.475,0.562,1.558,1.133c-0.408-0.193-0.968-0.209-0.96,0.529c0.265,0.797,0.987,0.582,1.208,0.506
		c0.955-0.322-1.425-4.51-2.953-2.248c-1.408,2.097,1.105,4.183,2.83,4.894c1.726,0.709,4.04,0.998,6.069,1.793
		c2.288,0.885,3.633,2.264,4.336,3.57c-0.508,0.395-0.178,1.098-0.192,1.564c0.237,0.305,1.104,0.127,1.443,0.564
		c0.854,0.779,0.439,1.834,0.681,2.756c0.621,2.461,3.036,3.943,5.854,5.238c0.338-0.223-0.749-1.119-0.413-1.342
		c2.177,2.602,7.879,5.049,12.954,6.803C108.967,62.956,112.422,64.042,110.447,67.386 M109.909,41.888
		c-1.252,7.182-9.957,3.123-14.852,4.635c-0.708,0.219-1.196,0.592-1.976,0.773c0.747-1.9,1.697-3.086,2.896-3.861
		C99.807,40.937,105.701,43.614,109.909,41.888 M110.669,36.585c-0.129,5.933-6.626,4.832-11.09,4.681
		C103.061,39.308,107.892,39.833,110.669,36.585 M109.408,30.823c-0.687-0.889-1.65-1.731-1.059-3.279
		c0.927-2.395,3.988-2.234,6.558-2.099c-0.003,0.626-0.629,0.415-1.008,0.646c-1.579,0.996-3.023,3.11-3.39,6.005
		C110.071,32.072,109.823,31.364,109.408,30.823 M94.514,23.32c0.746-2.698,2.682-3.224,4.695-3.598
		c-1.326,1.905-1.628,4.843-0.837,6.488C97.161,25.624,94.613,24.861,94.514,23.32 M89.766,49.401
		c-0.522,0.041-0.679-0.691-0.897-1.062c-2.148-3.676-3.748-9.326-1.228-15.458c1.474-3.607,4.869-6.041,9.482-3.803
		C92.141,32.571,88.826,42.728,89.766,49.401 M90.994,50.712c-1.798-9.484,5.133-21.773,14.167-19.659
		c3.813,0.896,3.081,3.916,0.681,5.453c-1.279,0.815-2.83,1.19-4.189,1.864C97.266,40.55,92.799,43.548,90.994,50.712
		 M105.868,48.241c-2.778,3.932-8.445,4.219-14.104,3.504C93.608,45.321,100.479,48.14,105.868,48.241 M109.539,59.567
		c-4.882-1.104-12.776-1.84-16.873-5.391c4.77,2.598,10.5,0.631,15.071,2.828C108.742,57.493,109.462,58.364,109.539,59.567
		 M105.974,51.103c2.594,0.537,5.473,1.605,4.81,4.248c-5.989-2.83-9.377,0.725-15.432-1.598
		C99.334,53.685,102.88,52.802,105.974,51.103 M112.342,61.483c-0.352-0.434-0.473-0.996-1.109-1.281
		c0.396-0.859,1.015-1.334,1.27-2.461C112.957,58.714,112.874,59.97,112.342,61.483"/>
</g>
</svg>
