<?xml version="1.0" encoding="utf-8"?>
<!-- Generator: Adobe Illustrator 16.0.0, SVG Export Plug-In . SVG Version: 6.00 Build 0)  -->
<!DOCTYPE svg PUBLIC "-//W3C//DTD SVG 1.1//EN" "http://www.w3.org/Graphics/SVG/1.1/DTD/svg11.dtd">
<svg version="1.1" id="Layer_1" xmlns="http://www.w3.org/2000/svg" xmlns:xlink="http://www.w3.org/1999/xlink" x="0px" y="0px"
	 width="75px" height="75px" viewBox="0 0 75 75" enable-background="new 0 0 75 75" xml:space="preserve">
<g>
	<g>
		<path fill="#C39E28" d="M28.607,59.587V70l3.185-3.185L34.976,70V59.587c-1.058,0.425-2.126,0.643-3.184,0.643
			C30.734,60.229,29.666,60.012,28.607,59.587L28.607,59.587z M28.607,59.587"/>
		<path fill="#C39E28" d="M37.102,52.794c0,2.935-2.375,5.31-5.31,5.31c-2.936,0-5.311-2.375-5.311-5.31
			c0-2.937,2.375-5.312,5.311-5.312C34.727,47.482,37.102,49.857,37.102,52.794L37.102,52.794z M37.102,52.794"/>
		<path fill="#C39E28" d="M34.976,19.875h10.621L32.85,5v12.747C32.85,19.021,33.918,19.875,34.976,19.875L34.976,19.875z
			 M34.976,19.875"/>
		<path fill="#C39E28" d="M30.734,17.747V5H9.494C7.148,5,5.24,6.91,5.24,9.254v48.85c0,2.334,1.908,4.253,4.253,4.253h16.988v-4.46
			c-1.274-1.276-2.126-3.195-2.126-5.103c0-4.035,3.402-7.438,7.437-7.438c4.034,0,7.436,3.402,7.436,7.438
			c0,2.125-0.851,3.826-2.125,5.103v4.46h4.252c2.333,0,4.242-1.919,4.242-4.253V21.988H34.976
			C32.643,21.988,30.734,20.082,30.734,17.747L30.734,17.747z M11.607,13.493h14.875v2.127H11.607V13.493z M11.607,19.875h14.875
			v2.113H11.607V19.875z M39.228,41.115H11.607v-2.127h27.621V41.115z M39.228,34.734H11.607v-2.126h27.621V34.734z M39.228,28.369
			H11.607v-2.128h27.621V28.369z M39.228,28.369"/>
	</g>
	<g>
		<path fill="#C39E28" d="M63.691,25.672c0,4.465-3.622,8.087-8.087,8.087s-8.087-3.622-8.087-8.087
			c0-4.469,3.622-8.086,8.087-8.086S63.691,21.203,63.691,25.672L63.691,25.672z M63.691,25.672"/>
		<path fill="#C39E28" d="M69.738,53.944l-1.41-11.058c-0.481-3.791-3.706-6.593-7.531-6.593H50.412
			c-1.006,0-1.969,0.198-2.854,0.553v20.568h19.484c0.778,0,1.523-0.542,2.04-1.126C69.599,55.705,69.836,54.719,69.738,53.944z"/>
	</g>
</g>
</svg>
