<?xml version="1.0" encoding="utf-8"?>
<!-- Generator: Adobe Illustrator 16.0.0, SVG Export Plug-In . SVG Version: 6.00 Build 0)  -->
<!DOCTYPE svg PUBLIC "-//W3C//DTD SVG 1.1//EN" "http://www.w3.org/Graphics/SVG/1.1/DTD/svg11.dtd">
<svg version="1.1" id="Layer_1" xmlns="http://www.w3.org/2000/svg" xmlns:xlink="http://www.w3.org/1999/xlink" x="0px" y="0px"
	 width="55px" height="55px" viewBox="0 0 55 55" enable-background="new 0 0 55 55" xml:space="preserve">
<path fill="#C39E28" d="M54.021,55H0.979C0.438,55,0,54.562,0,54.022V0.978C0,0.438,0.438,0,0.979,0h53.043
	C54.562,0,55,0.438,55,0.978v53.044C55,54.562,54.562,55,54.021,55z M41.123,53.044h11.921V41.123L41.986,52.181
	c-0.002,0.002-0.003,0.004-0.006,0.005c-0.001,0.002-0.003,0.004-0.004,0.005L41.123,53.044z M25.898,53.044h12.459l1.55-1.55
	l-6.229-6.229L25.898,53.044z M11.685,53.044h11.448l17.002-17.003l-5.723-5.724L16.357,48.372l0,0L11.685,53.044z M1.956,53.044
	h6.963l5.364-5.364l-6.01-6.01l-6.317,6.318V53.044z M35.061,43.882l6.229,6.229l11.755-11.754V25.898L42.209,36.732l0,0
	L35.061,43.882z M9.656,40.287l6.01,6.01L45.66,16.302l-6.01-6.01l-11.758,11.76c-0.002,0.001-0.003,0.001-0.004,0.002L9.656,40.287
	z M1.956,32.082v13.139l5.615-5.615c0.003-0.004,0.007-0.008,0.01-0.01c0.003-0.004,0.007-0.008,0.01-0.011l18.224-18.223
	l-6.432-6.432L1.956,32.082z M35.794,28.934l5.724,5.725l11.498-11.497c0.009-0.01,0.02-0.019,0.028-0.028V11.685L35.794,28.934z
	 M1.956,16.121v13.217l7.745-7.624l-6.637-6.637L1.956,16.121z M4.488,13.735l6.607,6.606L29.709,2.021H16.926L4.488,13.735z
	 M20.776,13.558l6.421,6.421L45.221,1.956H32.562L20.776,13.558z M41.034,8.909l6.009,6.01l6.001-6V1.956h-5.058L41.034,8.909z
	 M1.956,1.956v11.478l0.366-0.344c0.021-0.025,0.042-0.049,0.064-0.072c0.039-0.038,0.078-0.072,0.12-0.102L14.141,1.956H1.956z"/>
</svg>
