<?xml version="1.0" encoding="utf-8"?>
<!-- Generator: Adobe Illustrator 16.0.0, SVG Export Plug-In . SVG Version: 6.00 Build 0)  -->
<!DOCTYPE svg PUBLIC "-//W3C//DTD SVG 1.1//EN" "http://www.w3.org/Graphics/SVG/1.1/DTD/svg11.dtd">
<svg version="1.1" id="Layer_1" xmlns="http://www.w3.org/2000/svg" xmlns:xlink="http://www.w3.org/1999/xlink" x="0px" y="0px"
	 width="60px" height="47px" viewBox="0 0 60 47" enable-background="new 0 0 60 47" xml:space="preserve">
<g>
	<g>
		<path fill="#C39E28" d="M49.091,42.928c0,0.75-0.61,1.357-1.364,1.357h-9.545c-0.753,0-1.363-0.607-1.363-1.357V23.217
			c-1.727,0.074-3.551,0.117-5.455,0.134v14.142c0,0.752-0.611,1.359-1.363,1.359H13.637c-0.753,0-1.363-0.607-1.363-1.359V22.356
			c-2.107-0.252-3.932-0.52-5.455-0.776v22.705c0,1.501,1.221,2.717,2.727,2.717h40.91c1.506,0,2.727-1.216,2.727-2.717V21.58
			c-1.189,0.2-2.544,0.407-4.091,0.607V42.928z M59.443,13.567L49.898,1.069c-0.517-0.676-1.319-1.071-2.171-1.071H12.273
			c-0.853,0-1.655,0.396-2.172,1.071L0.557,13.567c-0.55,0.72-0.703,1.666-0.41,2.521c0.293,0.856,0.996,1.513,1.873,1.747
			C2.447,17.95,12.708,20.646,30,20.646s27.552-2.696,27.982-2.811c0.876-0.234,1.578-0.891,1.872-1.747
			C60.147,15.233,59.992,14.287,59.443,13.567z M47.728,30.7c0-0.751-0.61-1.359-1.363-1.359C45.61,29.341,45,29.949,45,30.7
			c0,0.749,0.61,1.358,1.364,1.358C47.117,32.059,47.728,31.449,47.728,30.7z"/>
	</g>
</g>
</svg>
