<?xml version="1.0" encoding="utf-8"?>
<!-- Generator: Adobe Illustrator 16.0.0, SVG Export Plug-In . SVG Version: 6.00 Build 0)  -->
<!DOCTYPE svg PUBLIC "-//W3C//DTD SVG 1.1//EN" "http://www.w3.org/Graphics/SVG/1.1/DTD/svg11.dtd">
<svg version="1.1" id="Layer_1" xmlns="http://www.w3.org/2000/svg" xmlns:xlink="http://www.w3.org/1999/xlink" x="0px" y="0px"
	 width="75px" height="75px" viewBox="0 0 75 75" enable-background="new 0 0 75 75" xml:space="preserve">
<g>
	<g>
		<path fill="#C39E28" d="M29.116,30.412H17.683v-11.28h3.201v-6.25H0v6.25h3.201v17.378c0,2.337,0.813,4.293,2.439,5.87
			c1.626,1.574,3.557,2.362,5.793,2.362h17.683v3.049h6.25V27.363h-6.25V30.412z"/>
		<path fill="#C39E28" d="M71.799,56.021V38.644c0-2.337-0.812-4.294-2.439-5.869c-1.625-1.575-3.557-2.363-5.793-2.363H45.885
			v-3.049h-6.25V47.79h6.25v-3.049h11.432v11.28h-3.201v6.098H75v-6.098H71.799z"/>
	</g>
</g>
</svg>
